<?xml version="1.0" encoding="UTF-8"?>
<svg id="Layer_2" data-name="Layer 2" xmlns="http://www.w3.org/2000/svg" viewBox="0 0 30.38087 33.89742">
  <defs>
    <style>
      .cls-1 {
        fill: #00ff18;
      }
    </style>
  </defs>
  <g id="Layer_1-2" data-name="Layer 1-2">
    <path class="cls-1" d="m30.38087,3.85796l-.01531,30.03946h-7.48047v-13.59766l-7.61328,7.80859-7.61328-7.80859L.17758,12.67086l.01531-8.8129h1.18799l13.9502,14.22559L29.28127,3.85796s1.09961,0,1.0996,0Z"/>
    <path d="m27.17773,7.5498c.19482.74512.29199,1.54004.29199,2.33398,0,2.28516-.73047,4.4209-2.09424,6.20898-.24365.29785-.48682.5957-.7793.89355-1.85059,1.8877-4.28613,2.93066-6.91602,2.93066H7.30566L0,12.4668V0h17.72852c2.63037,0,5.06543,1.04297,6.9165,2.93066,1.26611,1.29102,2.14307,2.93066,2.58154,4.71875,0,0-.04883-.09961-.04883-.09961ZM0,16.24121l8.27979,8.44336v9.18848H0v-17.63184Zm18.36182-4.56934c.38965-.49609.58447-1.09277.58447-1.73828,0-.24805-.04883-.49609-.09717-.69531-.09766-.49609-.34131-.94336-.73096-1.34082-.53564-.5459-1.26611-.84473-2.04541-.84473h-7.8418v1.14258l4.52979,4.61914h3.26318c.7793,0,1.51025-.29785,2.0459-.84473.09717-.09863.19482-.19824.24365-.29785h.04835Z"/>
  </g>
</svg>