<?xml version="1.0" encoding="utf-8"?>
<!-- Generator: Adobe Illustrator 27.4.1, SVG Export Plug-In . SVG Version: 6.00 Build 0)  -->
<svg version="1.1" id="Layer_2_00000003090874407206815000000014630633497544323250_"
	 xmlns="http://www.w3.org/2000/svg" xmlns:xlink="http://www.w3.org/1999/xlink" x="0px" y="0px" viewBox="0 0 432.2 35.2"
	 style="enable-background:new 0 0 432.2 35.2;" xml:space="preserve">
<style type="text/css">
	.st0{fill:#00FF18;}
</style>
<g id="Layer_1-2">
	<g>
		<g>
			<path d="M27.2,8.5c0.2,0.7,0.3,1.5,0.3,2.3c0,2.2-0.7,4.3-2.1,6.1c-0.2,0.3-0.5,0.6-0.8,0.9c-1.9,1.9-4.3,2.9-6.9,2.9H7.3L0,13.3
				V1.1h17.7c2.6,0,5.1,1,6.9,2.9C25.9,5.2,26.8,6.8,27.2,8.5L27.2,8.5L27.2,8.5z M0,17l8.3,8.3v9H0C0,34.3,0,17,0,17z M18.4,12.5
				c0.4-0.5,0.6-1.1,0.6-1.7c0-0.2,0-0.5-0.1-0.7c-0.1-0.5-0.3-0.9-0.7-1.3c-0.5-0.5-1.3-0.8-2-0.8H8.2v1.1l4.5,4.5H16
				c0.8,0,1.5-0.3,2-0.8C18.2,12.7,18.3,12.6,18.4,12.5C18.3,12.5,18.4,12.5,18.4,12.5z"/>
			<path d="M66.5,34.5H53.6l-0.2-0.2L40.6,21.5v0l-8.3-8.3V1h22.4c0.6,0,1.3,0,1.9,0.2c1.9,0.4,3.6,1.3,5,2.7
				c1.3,1.3,2.1,2.9,2.6,4.6c0.2,0.7,0.3,1.5,0.3,2.3c0,0.3,0,0.7,0,1c-0.1,2.7-1.2,5.2-3,7c-1.9,1.9-4.4,3-7.1,3h-0.5L66.5,34.5
				L66.5,34.5z M32.4,16.9l8.3,8.3v9.2h-8.3V16.9L32.4,16.9z M53.1,13.5c0.2,0,0.4,0,0.6,0c0.1,0,0.3-0.1,0.4-0.1
				c0.4-0.1,0.7-0.4,1-0.7l0.1-0.1l0.1-0.1c0,0,0-0.1,0-0.1c0-0.1,0.1-0.2,0.1-0.3c0.1-0.4,0.2-0.8,0.2-1.2v-0.3c0-0.1,0-0.2,0-0.3
				c0-0.1-0.1-0.3-0.1-0.4H41.2l3.9,3.9L53.1,13.5L53.1,13.5L53.1,13.5z"/>
			<path d="M89.6,24.5l5.9,5.9l-0.6,0.5c-3,2.3-6.5,3.5-10.3,3.5c-4.5,0-8.7-1.8-11.8-4.9c-3.2-3.2-4.9-7.4-4.9-11.8
				c0-3.8,1.2-7.3,3.5-10.3l0.5-0.6l5.9,5.9l-0.3,0.4c-0.8,1.3-1.3,2.9-1.3,4.5c0,2.2,0.9,4.3,2.5,5.9c1.6,1.6,3.7,2.5,5.9,2.5
				c1.6,0,3.2-0.4,4.5-1.3L89.6,24.5L89.6,24.5z M96.5,5.8c3.2,3.2,4.9,7.4,4.9,11.8c0,3.8-1.2,7.3-3.5,10.3l-0.5,0.6l-5.9-5.9
				l0.3-0.4c0.8-1.3,1.3-2.9,1.3-4.5c0-2.2-0.9-4.3-2.5-5.9c-1.6-1.6-3.7-2.5-5.9-2.5c-1.6,0-3.2,0.4-4.5,1.3l-0.4,0.3l-5.9-5.9
				l0.6-0.5c3-2.3,6.5-3.5,10.3-3.5C89.2,0.9,93.4,2.7,96.5,5.8L96.5,5.8L96.5,5.8z"/>
			<path d="M131.8,20.3h8.8l-0.2,0.8c-0.5,2.4-1.7,4.8-3.2,6.8c-1.5,1.9-3.5,3.6-5.7,4.7c-0.4,0.2-0.8,0.4-1.2,0.5
				c-2.1,0.9-4.4,1.3-6.7,1.3c-4.6,0-8.9-1.8-12.2-5.1s-5.1-7.6-5.1-12.2c0-1.9,0.3-3.9,1-5.7l0.3-1l7.2,7.2v0.2c0.1,2,1,4,2.5,5.5
				c1.5,1.5,3.4,2.3,5.5,2.5c0.4,0,0.8,0,1.2,0c0.9,0,1.8-0.2,2.6-0.5c0.3-0.1,0.5-0.2,0.8-0.3c0.8-0.4,1.6-1,2.3-1.7
				c0.8-0.8,1.5-1.8,1.9-2.8L131.8,20.3L131.8,20.3z M115.4,14.1l-6.3-6.3l0.3-0.4C112.6,2.8,118,0,123.6,0c3.9,0,7.8,1.4,10.9,3.8
				c3,2.4,5.1,5.8,5.9,9.6l0.2,0.8h-8.8l-0.2-0.4c-0.4-1.1-1.1-2-1.9-2.8c-1.7-1.7-3.8-2.6-6.2-2.6s-4.5,0.9-6.2,2.6
				c-0.7,0.7-1.2,1.5-1.7,2.3L115.4,14.1z"/>
			<path d="M155.4,22l-10.1-10.1V1h28v8.3h-18.8l4.3,4.3h14.4v8.3L155.4,22z M173.2,26.2v8.3h-27.9V15.5l8.3,8.3v2.3L173.2,26.2z"/>
			<path d="M208.6,8.3c1.9,2.8,2.9,6,2.9,9.4c0,3.4-1,6.6-2.9,9.4l-0.1,0.1c-3.1,4.5-8.2,7.2-13.7,7.2h-16.7V14.3l8.3,8.3v3.6h8.9
				c2.5-0.1,4.8-1.5,6.3-3.6v0c0.9-1.4,1.4-3.1,1.4-4.8c0-1.7-0.5-3.4-1.5-4.8c-1.6-2.2-4.1-3.6-6.8-3.6h-8.3v9.4l-8.3-8.3V1h16.7
				c5.5,0,10.6,2.7,13.7,7.2C208.5,8.2,208.6,8.3,208.6,8.3z"/>
			<path d="M224.5,12.9l-8.3-8.3V0.8h8.3V12.9L224.5,12.9z M233.8,26l6.6,6.6l-0.9,0.4c-2.1,0.9-4.3,1.3-6.6,1.3
				c-3.4,0-6.7-1-9.4-2.9c-4.5-3.1-7.3-8.3-7.3-13.8V8.4l8.3,8.3v0.9c0,2.2,0.9,4.3,2.5,5.9c1.6,1.6,3.7,2.5,5.9,2.5h0.6L233.8,26
				L233.8,26z M249.7,0.9v16.8c0,2.6-0.6,5.2-1.8,7.5c-1.1,2.2-2.7,4.2-4.7,5.7l-0.5,0.3l-6-6l0.7-0.4c0.5-0.3,1-0.7,1.5-1.2
				c1.6-1.6,2.5-3.7,2.5-5.9V1C241.5,1,249.7,0.9,249.7,0.9z"/>
			<path d="M288.7,34.5h-12.9l-0.2-0.2l-12.9-12.8v0l-8.3-8.3V1h22.4c0.6,0,1.3,0,1.9,0.2c1.9,0.4,3.6,1.3,5,2.7
				c1.3,1.3,2.1,2.9,2.6,4.6c0.2,0.7,0.3,1.5,0.3,2.3c0,0.3,0,0.7,0,1c-0.1,2.7-1.2,5.2-3,7c-1.9,1.9-4.4,3-7.1,3h-0.5L288.7,34.5
				L288.7,34.5z M254.6,16.9l8.3,8.3v9.2h-8.3V16.9L254.6,16.9z M275.4,13.5c0.2,0,0.4,0,0.6,0c0.1,0,0.3-0.1,0.4-0.1
				c0.4-0.1,0.7-0.4,1-0.7c0,0,0.1-0.1,0.1-0.1c0,0,0.1-0.1,0.1-0.1c0,0,0-0.1,0-0.1c0-0.1,0.1-0.2,0.1-0.3c0.1-0.4,0.2-0.8,0.2-1.2
				v-0.3c0-0.1,0-0.2,0-0.3c0-0.1-0.1-0.3-0.1-0.4h-14.5l3.9,3.9L275.4,13.5L275.4,13.5L275.4,13.5z"/>
			<path d="M306,10.9l4.8,8l-9.4,15.5h-9.7C291.7,34.4,306,10.9,306,10.9z M333,34.5h-9.7l-2-3.3L307.5,8.3l4.8-7.9
				C312.4,0.4,333,34.5,333,34.5z"/>
			<path d="M346.2,26.3l8.1,8.1h-17.8V1h8.3v25.2h1.3L346.2,26.3z M359.7,26.2v8.3H358l-8.3-8.3H359.7z"/>
		</g>
		<g>
			<path class="st0" d="M374.1,20v14.4h-3.6v-6.4l-3.6,3.7l-3.6-3.7l-3.6-3.6V20h0.6l6.7,6.7l6.7-6.7C373.6,20,374.1,20,374.1,20z
				 M359.7,26.1l3.6,3.6v4.7h-3.6V26.1z"/>
			<path class="st0" d="M380.6,29.1l-4.4-4.4V20h12.1v3.6h-8.1l1.9,1.9h6.2V29C388.3,29,380.6,29.1,380.6,29.1z M388.3,30.9v3.6h-12
				v-8.2l3.6,3.6v1L388.3,30.9z"/>
			<path class="st0" d="M403.6,23.2c0.8,1.2,1.3,2.6,1.3,4.1c0,1.5-0.4,2.9-1.3,4.1c0,0,0,0-0.1,0.1c-1.3,1.9-3.6,3.1-5.9,3.1h-7.2
				v-8.7l3.6,3.6v1.5h3.8c1.1-0.1,2.1-0.6,2.7-1.5v0c0.4-0.6,0.6-1.3,0.6-2.1s-0.2-1.4-0.6-2.1c-0.7-1-1.8-1.6-2.9-1.6H394v4.1
				l-3.6-3.6V20h7.2C399.9,20,402.1,21.2,403.6,23.2L403.6,23.2L403.6,23.2z"/>
			<path class="st0" d="M410.4,20v5.4l-3.6-3.6V20H410.4z M406.9,23.4l3.6,3.6v7.4h-3.6C406.9,34.4,406.9,23.4,406.9,23.4z"/>
			<path class="st0" d="M418.7,24.3l2.1,3.4l-4.1,6.7h-4.2L418.7,24.3z M430.4,34.5h-4.2l-0.9-1.4l-5.9-9.9l2.1-3.4
				C421.5,19.7,430.4,34.5,430.4,34.5z"/>
		</g>
	</g>
</g>
</svg>
