<?xml version="1.0" encoding="UTF-8"?>
<svg id="Layer_2" data-name="Layer 2" xmlns="http://www.w3.org/2000/svg" viewBox="0 0 359.69775 60.70654">
  <defs>
    <style>
      .cls-1 {
        fill: #fff;
      }

      .cls-2 {
        stroke: #fff;
        stroke-width: 5px;
      }

      .cls-2, .cls-3 {
        fill: none;
        stroke-miterlimit: 10;
      }

      .cls-3 {
        stroke: #00ff18;
        stroke-width: .5px;
      }
    </style>
  </defs>
  <g id="Layer_1-2" data-name="Layer 1">
    <line class="cls-2" x1="134.84858" y1="52.63861" x2="9.04466" y2="52.63861"/>
    <g>
      <path class="cls-1" d="m27.17822,8.47461c.19482.73047.29248,1.50977.29248,2.28906,0,2.24072-.73096,4.33496-2.09473,6.08838-.24316.29248-.48682.58447-.7793.87695-1.85059,1.85059-4.28613,2.87354-6.91602,2.87354H7.30615L0,13.29688V1.07129h17.72949c2.62988,0,5.06543,1.02295,6.91602,2.87402,1.2666,1.26611,2.14307,2.87354,2.58154,4.62695l-.04883-.09766ZM0,16.99805l8.28027,8.28027v9.01074H0v-17.29102Zm18.3623-4.48047c.38965-.4873.58447-1.07178.58447-1.70508,0-.24316-.04834-.48682-.09717-.68164-.09766-.4873-.34082-.92578-.73047-1.31543-.53613-.53564-1.2666-.82764-2.0459-.82764h-7.8418v1.12012l4.52979,4.52979h3.26318c.7793,0,1.50977-.29248,2.0459-.82812.09717-.09766.19482-.19482.24316-.29199h.04883Z"/>
      <path class="cls-1" d="m66.479,34.48389h-12.8584l-.19482-.19482-12.8584-12.80957v.04834l-8.27979-8.27979V1.02246h22.35596c.6333,0,1.2666.04883,1.89941.19531,1.89941.38965,3.60449,1.31494,4.96826,2.67871,1.26611,1.26611,2.14307,2.87354,2.58154,4.62695.19434.73047.29199,1.50977.29199,2.28906,0,.34082,0,.68213-.04883,1.02295-.09717,2.67871-1.16895,5.1626-3.01953,7.01367-1.89941,1.89941-4.43262,2.97119-7.11133,3.02002h-.53564l12.80957,12.61475Zm-34.09424-17.58301l8.28027,8.27979v9.20557h-8.28027v-17.48535Zm20.74902-3.36084c.19482,0,.38965,0,.58447-.04883.146-.04834.29199-.09717.43799-.146.38965-.146.73096-.38965,1.02295-.68164l.146-.146.14648-.14648c.04883-.04883.04883-.09717.04883-.146.04834-.09717.09717-.19482.146-.29248.146-.38965.24365-.7793.24365-1.21729v-.29248c0-.09717,0-.19482-.04883-.29199-.04883-.14648-.09766-.29248-.14648-.43848h-14.51416l3.94531,3.94531h7.93896l.04883-.09766Z"/>
      <path class="cls-1" d="m89.60986,24.49902l5.89355,5.89355-.58447.48682c-2.97119,2.28955-6.52637,3.50684-10.27686,3.50684-4.48096,0-8.66992-1.75342-11.83545-4.91943-3.16602-3.16553-4.91943-7.35449-4.91943-11.83545,0-3.75049,1.21729-7.30566,3.50684-10.27686l.48682-.58447,5.89355,5.89355-.29199.43799c-.82812,1.31543-1.2666,2.87402-1.2666,4.48145,0,2.24023.87695,4.33447,2.48389,5.94189,1.60742,1.60742,3.70166,2.48389,5.94238,2.48389,1.60693,0,3.16553-.43848,4.48096-1.26611l.48682-.24365Zm6.86768-18.70312c3.16602,3.16602,4.91943,7.35449,4.91943,11.83545,0,3.75049-1.21777,7.30615-3.50684,10.27686l-.4873.58496-5.89307-5.89355.29199-.43848c.82812-1.31494,1.2666-2.87354,1.2666-4.48096,0-2.24072-.87695-4.33496-2.48438-5.94189-1.60742-1.60742-3.70166-2.48438-5.94189-2.48438-1.60742,0-3.16602.43848-4.48096,1.2666l-.43848.29199-5.89355-5.89355.58447-.48682c2.97119-2.28906,6.52686-3.50684,10.27686-3.50684,4.48145,0,8.66992,1.75342,11.83594,4.91943l-.04883-.04883Z"/>
      <path class="cls-1" d="m131.83252,20.26172h8.76709l-.19482.82812c-.53564,2.43506-1.65576,4.77295-3.21436,6.77002-1.50977,1.94824-3.50684,3.604-5.69873,4.72412-.38965.19531-.7793.38965-1.16895.53613-2.14307.87646-4.3833,1.31494-6.72119,1.31494-4.57861,0-8.91357-1.80225-12.17676-5.06543s-5.06543-7.59814-5.06543-12.17627c0-1.94824.34082-3.89648.97412-5.74756l.34082-1.02295,7.2085,7.2085v.24365c.14648,2.0459,1.02295,3.99414,2.48438,5.45508,1.46094,1.46094,3.40918,2.33789,5.45508,2.48389.38965.04883.82764.04883,1.21729.04883.87695-.04883,1.75342-.24365,2.58154-.53564.29199-.09766.53564-.19482.7793-.34082.82812-.43848,1.60742-.97461,2.28906-1.65625.82812-.82812,1.46143-1.75342,1.89941-2.8252l.24365-.24316Zm-16.4624-6.13721l-6.2832-6.28271.34082-.43848c3.21484-4.62695,8.52344-7.40332,14.17383-7.40332,3.94482,0,7.79297,1.36377,10.86133,3.84766,3.01953,2.43555,5.11426,5.84473,5.94189,9.59521l.19482.82764h-8.76709l-.19482-.38965c-.43848-1.07129-1.07129-1.99658-1.89941-2.82471-1.65625-1.65576-3.84766-2.58154-6.18555-2.58154s-4.52979.92578-6.18555,2.58154c-.68213.68213-1.21777,1.46143-1.65625,2.28906l-.34082.7793Z"/>
      <path class="cls-1" d="m155.40039,21.96631l-10.13037-10.13086V1.02246h27.95752v8.28027h-18.75195l4.33496,4.33496h14.41699v8.27979l-17.82715.04883Zm17.82715,4.2373v8.28027h-27.90918V15.53711l8.28027,8.28027v2.33789l19.62891.04834Z"/>
      <path class="cls-1" d="m208.6333,8.32861c1.89941,2.77637,2.92188,6.03955,2.92188,9.44873,0,3.36084-1.02246,6.62402-2.92188,9.40039l-.14648.14648c-3.11719,4.48047-8.23145,7.15967-13.68652,7.15967h-16.65723V14.27051l8.32812,8.3291v3.55566h8.91406c2.53223-.14648,4.82129-1.46143,6.28223-3.55566v-.04883c.92578-1.4126,1.41309-3.06836,1.41309-4.77344,0-1.70459-.4873-3.36035-1.46094-4.77295-1.55859-2.24072-4.0918-3.604-6.81934-3.604h-8.3291v9.44873l-8.32812-8.32861V1.02246h16.65723c5.45508,0,10.56934,2.6792,13.68652,7.16016l.14648.146Z"/>
      <path class="cls-1" d="m224.50635,12.90723l-8.3291-8.3291V.82812h8.3291v12.0791Zm9.30273,13.05273l6.62402,6.62402-.92578.38965c-2.09473.87695-4.28613,1.31543-6.5752,1.31543-3.40918,0-6.67285-1.02295-9.44922-2.92236-4.5293-3.11719-7.25684-8.28027-7.25684-13.78369v-9.20557l8.3291,8.32861v.92529c0,2.24072.87598,4.33496,2.4834,5.94238,1.60742,1.60693,3.70215,2.48389,5.94238,2.48389h.58398l.24414-.09766ZM249.73584.92529v16.75488c0,2.63037-.58496,5.1626-1.75391,7.50049-1.12012,2.24072-2.72754,4.23779-4.67578,5.74756l-.48633.34082-5.99121-5.99072.68164-.43848c.53613-.34082,1.02344-.73047,1.46094-1.16895,1.60742-1.60742,2.48438-3.70166,2.48438-5.94189V.97412l8.28027-.04883Z"/>
      <path class="cls-1" d="m288.74365,34.48389h-12.8584l-.19434-.19482-12.8584-12.80957v.04834l-8.28027-8.27979V1.02246h22.35645c.63281,0,1.26562.04883,1.89941.19531,1.89941.38965,3.60352,1.31494,4.96777,2.67871,1.2666,1.26611,2.14258,2.87354,2.58105,4.62695.19531.73047.29199,1.50977.29199,2.28906,0,.34082,0,.68213-.04785,1.02295-.09766,2.67871-1.16895,5.1626-3.02051,7.01367-1.89941,1.89941-4.43164,2.97119-7.11035,3.02002h-.53613l12.80957,12.61475Zm-34.09375-17.58301l8.2793,8.27979v9.20557h-8.2793v-17.48535Zm20.74805-3.36084c.19531,0,.38965,0,.58496-.04883.14648-.04834.29199-.09717.43848-.146.38965-.146.73047-.38965,1.02246-.68164.04883-.04883.09766-.09766.14648-.146.04883-.04883.09766-.09766.14551-.14648.04883-.04883.04883-.09717.04883-.146.04883-.09717.09766-.19482.14648-.29248.14551-.38965.24316-.7793.24316-1.21729v-.29248c0-.09717,0-.19482-.04883-.29199-.04883-.14648-.09668-.29248-.14551-.43848h-14.51465l3.94531,3.94531h7.93945l.04785-.09766Z"/>
      <path class="cls-1" d="m305.98096,10.91016l4.82227,7.98779-9.44922,15.53711h-9.69238l14.31934-23.5249Zm27.03223,23.57373h-9.69238l-1.99707-3.31201-13.78418-22.84326,4.82227-7.93896,20.65137,34.09424Z"/>
      <path class="cls-1" d="m346.15771,26.34961l8.08496,8.08545h-17.82617V.97412h8.2793v25.18115h1.2666l.19531.19434Zm13.54004-.19434v8.27979h-1.65625l-8.2793-8.27979h9.93555Z"/>
      <path class="cls-3" d="m158.57031,45.76953v14.66553h-3.62891v-6.46826l-3.69336,3.71436-3.69336-3.71436-3.62891-3.62891v-4.56836h.57666l6.7666,6.76709,6.76709-6.76709h.53418Zm-14.62305,6.2334l3.62891,3.62891v4.80322h-3.62891v-8.43213Z"/>
      <path class="cls-3" d="m165.16797,54.97021l-4.44043-4.43994v-4.73926h12.25293v3.62891h-8.21777l1.89941,1.8999h6.31836v3.62891l-7.8125.02148Zm7.8125,1.85742v3.62891h-12.23145v-8.3042l3.62891,3.62891v1.0249l8.60254.02148Z"/>
      <path class="cls-3" d="m188.50244,48.99316c.83203,1.2168,1.28125,2.64697,1.28125,4.14111,0,1.47314-.44922,2.90332-1.28125,4.12012-.02148.02148-.04297.04248-.06445.06396-1.36621,1.96387-3.60742,3.13818-5.99805,3.13818h-7.30127v-8.85938l3.65088,3.65039v1.55859h3.90625c1.11035-.06396,2.11328-.64062,2.75391-1.55859v-.021c.40527-.61914.61914-1.34521.61914-2.09229s-.21387-1.47266-.64062-2.0918c-.68262-.98193-1.79297-1.57959-2.98828-1.57959h-3.65039v4.14111l-3.65088-3.65039v-4.1626h7.30127c2.39062,0,4.63184,1.17383,5.99805,3.13818l.06445.06396Z"/>
      <path class="cls-3" d="m195.48486,45.76953v5.44336l-3.62891-3.62891v-1.81445h3.62891Zm-3.62891,3.47949l3.62891,3.62939v7.55664h-3.62891v-11.18604Z"/>
      <path class="cls-3" d="m203.89697,50.12451l2.11328,3.50098-4.1416,6.80957h-4.24805l6.27637-10.31055Zm11.84766,10.33203h-4.24805l-.87598-1.45166-6.04102-10.01172,2.11328-3.47949,9.05176,14.94287Z"/>
    </g>
    <line class="cls-2" x1="350.92702" y1="52.56731" x2="225.12309" y2="52.56731"/>
  </g>
</svg>